<svg width="60" height="60" viewBox="0 0 60 60" xmlns="http://www.w3.org/2000/svg">
  <rect
    fill="transparent"
    height="60"
    rx="10"
    width="60"
  />
  <circle
    cx="30"
    cy="30"
    fill="transparent"
    r="6"
  />
  <path
    d="M30 37.5a7.5 7.5 0 117.5-7.5 7.508 7.508 0 01-7.5 7.5zm0-12a4.5 4.5 0 104.5 4.5 4.505 4.505 0 00-4.5-4.5z"
    fill="#7F00FE"
  />
  <path
    d="M40.631 50.77a1.5 1.5 0 01-.727-2.813 20.5 20.5 0 10-19.808 0 1.5 1.5 0 11-1.452 2.625 23.5 23.5 0 1122.712 0 1.5 1.5 0 01-.725.188z"
    fill="#7F00FE"
  />
  <path
    d="M37.051 43.59a1.5 1.5 0 01-.756-2.8 12.5 12.5 0 10-12.59 0 1.5 1.5 0 01-1.505 2.597 15.5 15.5 0 1115.608 0 1.5 1.5 0 01-.757.203z"
    fill="#7F00FE"
  />
  <path fill="transparent" d="M24 52L36 52 30 40 24 52z" />
  <path
    d="M36 53.5H24a1.5 1.5 0 01-1.342-2.171l6-12a1.5 1.5 0 012.684 0l6 12A1.5 1.5 0 0136 53.5zm-9.573-3h7.146L30 43.354z"
    fill="#7F00FE"
  />
  <path
    d="M52 31.5a1.5 1.5 0 01-1.5-1.5 20.5 20.5 0 00-41 0 1.5 1.5 0 01-3 0 23.5 23.5 0 0147 0 1.5 1.5 0 01-1.5 1.5z"
    fill="#7F00FE"
  />
  <path
    d="M44 31.5a1.5 1.5 0 01-1.5-1.5 12.5 12.5 0 00-25 0 1.5 1.5 0 01-3 0 15.5 15.5 0 0131 0 1.5 1.5 0 01-1.5 1.5z"
    fill="#7F00FE"
  />
</svg> 